<svg width="385" height="374" viewBox="0 0 385 374" fill="none" xmlns="http://www.w3.org/2000/svg">
<g filter="url(#filter0_g_2009_2)">
<path d="M11.526 40.449C10.6963 24.4373 23.4553 11 39.4885 11H345.793C362.092 11 374.947 24.8678 373.712 41.1206L364.5 162.408L374.276 332.922C375.207 349.166 362.145 362.78 345.877 362.521L39.6431 357.654C23.5528 357.398 10.9888 343.665 12.1626 327.615L20.5 213.625L11.526 40.449Z" fill="#7507CC"/>
<path d="M11.526 40.449C10.6963 24.4373 23.4553 11 39.4885 11H345.793C362.092 11 374.947 24.8678 373.712 41.1206L364.5 162.408L374.276 332.922C375.207 349.166 362.145 362.78 345.877 362.521L39.6431 357.654C23.5528 357.398 10.9888 343.665 12.1626 327.615L20.5 213.625L11.526 40.449Z" stroke="#820CE4" stroke-width="13"/>
</g>
<g filter="url(#filter1_f_2009_2)">
<g opacity="0.65">
<g filter="url(#filter2_di_2009_2)">
<ellipse cx="68.6802" cy="69.9444" rx="26.6802" ry="26.9444" fill="#F0EEDB"/>
</g>
<path d="M49.3965 88.5875H87.4356V50.5484H49.3965V88.5875Z" fill="black"/>
<g filter="url(#filter3_di_2009_2)">
<ellipse cx="152.041" cy="69.9444" rx="26.6802" ry="26.9444" fill="#F0EEDB"/>
</g>
<path d="M132.757 88.5875H170.796V50.5484H132.757V88.5875Z" fill="black"/>
<g filter="url(#filter4_di_2009_2)">
<ellipse cx="235.401" cy="69.9444" rx="26.6802" ry="26.9444" fill="#F0EEDB"/>
</g>
<path d="M216.117 88.5875H254.157V50.5484H216.117V88.5875Z" fill="black"/>
<g filter="url(#filter5_di_2009_2)">
<ellipse cx="316.762" cy="69.9444" rx="26.6802" ry="26.9444" fill="#F0EEDB"/>
</g>
<path d="M306.22 72.6285C306.22 70.6663 304.702 69.6852 301.666 69.6852H301.108L303.741 64.945L299.249 64.1085L300.24 60.6696H313.408L309.876 66.742C309.979 66.7833 310.123 66.8452 310.309 66.9278C310.495 66.9898 310.815 67.1757 311.27 67.4855C311.724 67.7747 312.127 68.1258 312.478 68.5389C312.829 68.9313 313.149 69.489 313.439 70.2119C313.728 70.9141 313.872 71.6887 313.872 72.5355C313.872 74.6009 313.067 76.3256 311.456 77.7094C309.845 79.0726 307.903 79.7542 305.631 79.7542C304.475 79.7542 303.339 79.5683 302.223 79.1965C301.129 78.8041 300.323 78.4117 299.807 78.0192L299.001 77.4616L300.488 74.4873C301.48 75.045 302.43 75.3238 303.339 75.3238C304.247 75.3238 304.95 75.0967 305.445 74.6423C305.962 74.1879 306.22 73.5166 306.22 72.6285ZM326.707 65.6266C326.418 64.6765 325.84 64.2015 324.972 64.2015C324.105 64.2015 323.516 64.6765 323.206 65.6266C322.917 66.5767 322.772 68.0432 322.772 70.026C322.772 73.8471 323.506 75.7576 324.972 75.7576C326.439 75.7576 327.172 73.8471 327.172 70.026C327.172 68.0432 327.017 66.5767 326.707 65.6266ZM331.726 77.1827C329.867 78.8971 327.616 79.7542 324.972 79.7542C322.328 79.7542 320.077 78.8971 318.218 77.1827C316.359 75.4478 315.43 73.0828 315.43 70.088C315.43 67.0931 316.287 64.7075 318.001 62.9312C319.716 61.1343 322.039 60.2358 324.972 60.2358C327.905 60.2358 330.229 61.1343 331.943 62.9312C333.657 64.7075 334.514 67.0931 334.514 70.088C334.514 73.0828 333.585 75.4478 331.726 77.1827Z" fill="#423C3C"/>
<path d="M192.458 76.7368C192.458 77.0719 192.591 77.3931 192.828 77.63C193.065 77.8669 193.386 78 193.721 78C194.056 78 194.377 77.8669 194.614 77.63C194.851 77.3931 194.984 77.0719 194.984 76.7368V71.2632H200.458C200.793 71.2632 201.114 71.1301 201.351 70.8932C201.588 70.6563 201.721 70.335 201.721 70C201.721 69.665 201.588 69.3437 201.351 69.1068C201.114 68.8699 200.793 68.7368 200.458 68.7368H194.984V63.2632C194.984 62.9281 194.851 62.6069 194.614 62.37C194.377 62.1331 194.056 62 193.721 62C193.386 62 193.065 62.1331 192.828 62.37C192.591 62.6069 192.458 62.9281 192.458 63.2632V68.7368H186.984C186.649 68.7368 186.328 68.8699 186.091 69.1068C185.854 69.3437 185.721 69.665 185.721 70C185.721 70.335 185.854 70.6563 186.091 70.8932C186.328 71.1301 186.649 71.2632 186.984 71.2632H192.458V76.7368Z" fill="white"/>
<path d="M109.097 76.7368C109.097 77.0719 109.23 77.3931 109.467 77.63C109.704 77.8669 110.025 78 110.36 78C110.695 78 111.017 77.8669 111.254 77.63C111.491 77.3931 111.624 77.0719 111.624 76.7368V71.2632H117.097C117.432 71.2632 117.754 71.1301 117.991 70.8932C118.227 70.6563 118.36 70.335 118.36 70C118.36 69.665 118.227 69.3437 117.991 69.1068C117.754 68.8699 117.432 68.7368 117.097 68.7368H111.624V63.2632C111.624 62.9281 111.491 62.6069 111.254 62.37C111.017 62.1331 110.695 62 110.36 62C110.025 62 109.704 62.1331 109.467 62.37C109.23 62.6069 109.097 62.9281 109.097 63.2632V68.7368H103.624C103.289 68.7368 102.967 68.8699 102.73 69.1068C102.494 69.3437 102.36 69.665 102.36 70C102.36 70.335 102.494 70.6563 102.73 70.8932C102.967 71.1301 103.289 71.2632 103.624 71.2632H109.097V76.7368Z" fill="white"/>
<path d="M270.394 74C270.029 74 269.72 73.8835 269.465 73.6504C269.21 73.4173 269.082 73.1339 269.081 72.8C269.081 72.4661 269.209 72.1829 269.465 71.9504C269.721 71.7179 270.031 71.6011 270.394 71.6H281.769C282.134 71.6 282.444 71.7168 282.699 71.9504C282.955 72.184 283.082 72.4672 283.081 72.8C283.081 73.1328 282.953 73.4163 282.699 73.6504C282.445 73.8845 282.135 74.0011 281.769 74H270.394ZM270.394 68.4C270.029 68.4 269.72 68.2835 269.465 68.0504C269.21 67.8173 269.082 67.5339 269.081 67.2C269.081 66.8661 269.209 66.5829 269.465 66.3504C269.721 66.1179 270.031 66.0011 270.394 66H281.769C282.134 66 282.444 66.1168 282.699 66.3504C282.955 66.584 283.082 66.8672 283.081 67.2C283.081 67.5328 282.953 67.8163 282.699 68.0504C282.445 68.2845 282.135 68.4011 281.769 68.4H270.394Z" fill="white"/>
</g>
<g opacity="0.6">
<g filter="url(#filter6_di_2009_2)">
<ellipse cx="68.6802" cy="303.61" rx="26.6802" ry="26.9444" fill="#F0EEDB"/>
</g>
<path d="M49.3965 322.254H87.4356V284.214H49.3965V322.254Z" fill="black"/>
<g filter="url(#filter7_di_2009_2)">
<ellipse cx="152.041" cy="303.61" rx="26.6802" ry="26.9444" fill="#F0EEDB"/>
</g>
<path d="M132.757 322.254H170.796V284.214H132.757V322.254Z" fill="black"/>
<g filter="url(#filter8_di_2009_2)">
<ellipse cx="235.401" cy="303.61" rx="26.6802" ry="26.9444" fill="#F0EEDB"/>
</g>
<path d="M216.117 322.254H254.157V284.214H216.117V322.254Z" fill="black"/>
<g filter="url(#filter9_di_2009_2)">
<ellipse cx="316.762" cy="303.61" rx="26.6802" ry="26.9444" fill="#F0EEDB"/>
</g>
<path d="M306.024 298.115C305.094 298.115 304.124 298.456 303.112 299.138L302.244 295.73C304 294.428 306.096 293.778 308.533 293.778C310.144 293.778 311.508 294.15 312.623 294.893C314.213 295.947 315.009 297.258 315.009 298.828C315.009 299.551 314.833 300.325 314.482 301.151C313.924 302.432 312.912 303.558 311.446 304.528L310.237 308.184C309.783 307.895 309.225 307.751 308.564 307.751C307.903 307.751 307.242 307.895 306.582 308.184L305.311 304.498C306.179 303.754 306.86 303.031 307.356 302.329C307.852 301.606 308.12 301.069 308.162 300.718L308.255 300.222C308.234 299.437 307.986 298.89 307.511 298.58C307.057 298.27 306.561 298.115 306.024 298.115ZM306.705 309.609C307.098 309.176 307.687 308.959 308.471 308.959C309.256 308.959 309.845 309.176 310.237 309.609C310.63 310.023 310.826 310.549 310.826 311.19C310.826 311.83 310.63 312.367 310.237 312.801C309.845 313.214 309.256 313.42 308.471 313.42C307.687 313.42 307.098 313.214 306.705 312.801C306.313 312.367 306.117 311.83 306.117 311.19C306.117 310.549 306.313 310.023 306.705 309.609ZM320.758 298.115C319.829 298.115 318.858 298.456 317.846 299.138L316.979 295.73C318.734 294.428 320.831 293.778 323.268 293.778C324.879 293.778 326.242 294.15 327.357 294.893C328.948 295.947 329.743 297.258 329.743 298.828C329.743 299.551 329.567 300.325 329.216 301.151C328.659 302.432 327.647 303.558 326.18 304.528L324.972 308.184C324.517 307.895 323.96 307.751 323.299 307.751C322.638 307.751 321.977 307.895 321.316 308.184L320.046 304.498C320.913 303.754 321.595 303.031 322.09 302.329C322.586 301.606 322.855 301.069 322.896 300.718L322.989 300.222C322.968 299.437 322.72 298.89 322.245 298.58C321.791 298.27 321.295 298.115 320.758 298.115ZM321.44 309.609C321.832 309.176 322.421 308.959 323.206 308.959C323.991 308.959 324.579 309.176 324.972 309.609C325.364 310.023 325.56 310.549 325.56 311.19C325.56 311.83 325.364 312.367 324.972 312.801C324.579 313.214 323.991 313.42 323.206 313.42C322.421 313.42 321.832 313.214 321.44 312.801C321.047 312.367 320.851 311.83 320.851 311.19C320.851 310.549 321.047 310.023 321.44 309.609Z" fill="#423C3C"/>
<path d="M192.458 310.403C192.458 310.738 192.591 311.059 192.828 311.296C193.065 311.533 193.386 311.666 193.721 311.666C194.056 311.666 194.377 311.533 194.614 311.296C194.851 311.059 194.984 310.738 194.984 310.403V304.929H200.458C200.793 304.929 201.114 304.796 201.351 304.559C201.588 304.322 201.721 304.001 201.721 303.666C201.721 303.331 201.588 303.01 201.351 302.773C201.114 302.536 200.793 302.403 200.458 302.403H194.984V296.929C194.984 296.594 194.851 296.273 194.614 296.036C194.377 295.799 194.056 295.666 193.721 295.666C193.386 295.666 193.065 295.799 192.828 296.036C192.591 296.273 192.458 296.594 192.458 296.929V302.403H186.984C186.649 302.403 186.328 302.536 186.091 302.773C185.854 303.01 185.721 303.331 185.721 303.666C185.721 304.001 185.854 304.322 186.091 304.559C186.328 304.796 186.649 304.929 186.984 304.929H192.458V310.403Z" fill="white"/>
<path d="M109.097 310.403C109.097 310.738 109.23 311.059 109.467 311.296C109.704 311.533 110.025 311.666 110.36 311.666C110.695 311.666 111.017 311.533 111.254 311.296C111.491 311.059 111.624 310.738 111.624 310.403V304.929H117.097C117.432 304.929 117.754 304.796 117.991 304.559C118.227 304.322 118.36 304.001 118.36 303.666C118.36 303.331 118.227 303.01 117.991 302.773C117.754 302.536 117.432 302.403 117.097 302.403H111.624V296.929C111.624 296.594 111.491 296.273 111.254 296.036C111.017 295.799 110.695 295.666 110.36 295.666C110.025 295.666 109.704 295.799 109.467 296.036C109.23 296.273 109.097 296.594 109.097 296.929V302.403H103.624C103.289 302.403 102.967 302.536 102.73 302.773C102.494 303.01 102.36 303.331 102.36 303.666C102.36 304.001 102.494 304.322 102.73 304.559C102.967 304.796 103.289 304.929 103.624 304.929H109.097V310.403Z" fill="white"/>
<path d="M270.394 307.666C270.029 307.666 269.72 307.549 269.465 307.316C269.21 307.083 269.082 306.8 269.081 306.466C269.081 306.132 269.209 305.849 269.465 305.616C269.721 305.384 270.031 305.267 270.394 305.266H281.769C282.134 305.266 282.444 305.383 282.699 305.616C282.955 305.85 283.082 306.133 283.081 306.466C283.081 306.799 282.953 307.082 282.699 307.316C282.445 307.551 282.135 307.667 281.769 307.666H270.394ZM270.394 302.066C270.029 302.066 269.72 301.949 269.465 301.716C269.21 301.483 269.082 301.2 269.081 300.866C269.081 300.532 269.209 300.249 269.465 300.016C269.721 299.784 270.031 299.667 270.394 299.666H281.769C282.134 299.666 282.444 299.783 282.699 300.016C282.955 300.25 283.082 300.533 283.081 300.866C283.081 301.199 282.953 301.482 282.699 301.716C282.445 301.951 282.135 302.067 281.769 302.066H270.394Z" fill="white"/>
</g>
</g>
<defs>
<filter id="filter0_g_2009_2" x="0.987549" y="0.5" width="383.835" height="372.525" filterUnits="userSpaceOnUse" color-interpolation-filters="sRGB">
<feFlood flood-opacity="0" result="BackgroundImageFix"/>
<feBlend mode="normal" in="SourceGraphic" in2="BackgroundImageFix" result="shape"/>
<feTurbulence type="fractalNoise" baseFrequency="0.05128205195069313 0.05128205195069313" numOctaves="3" seed="2967" />
<feDisplacementMap in="shape" scale="8" xChannelSelector="R" yChannelSelector="G" result="displacedImage" width="100%" height="100%" />
<feMerge result="effect1_texture_2009_2">
<feMergeNode in="displacedImage"/>
</feMerge>
</filter>
<filter id="filter1_f_2009_2" x="-22" y="-21" width="430" height="416" filterUnits="userSpaceOnUse" color-interpolation-filters="sRGB">
<feFlood flood-opacity="0" result="BackgroundImageFix"/>
<feBlend mode="normal" in="SourceGraphic" in2="BackgroundImageFix" result="shape"/>
<feGaussianBlur stdDeviation="16" result="effect1_foregroundBlur_2009_2"/>
</filter>
<filter id="filter2_di_2009_2" x="39.8867" y="43" width="57.587" height="58.1153" filterUnits="userSpaceOnUse" color-interpolation-filters="sRGB">
<feFlood flood-opacity="0" result="BackgroundImageFix"/>
<feColorMatrix in="SourceAlpha" type="matrix" values="0 0 0 0 0 0 0 0 0 0 0 0 0 0 0 0 0 0 127 0" result="hardAlpha"/>
<feOffset dy="2.11328"/>
<feGaussianBlur stdDeviation="1.05664"/>
<feComposite in2="hardAlpha" operator="out"/>
<feColorMatrix type="matrix" values="0 0 0 0 0 0 0 0 0 0 0 0 0 0 0 0 0 0 0.25 0"/>
<feBlend mode="normal" in2="BackgroundImageFix" result="effect1_dropShadow_2009_2"/>
<feBlend mode="normal" in="SourceGraphic" in2="effect1_dropShadow_2009_2" result="shape"/>
<feColorMatrix in="SourceAlpha" type="matrix" values="0 0 0 0 0 0 0 0 0 0 0 0 0 0 0 0 0 0 127 0" result="hardAlpha"/>
<feOffset dx="1.58496" dy="2.64161"/>
<feComposite in2="hardAlpha" operator="arithmetic" k2="-1" k3="1"/>
<feColorMatrix type="matrix" values="0 0 0 0 1 0 0 0 0 1 0 0 0 0 1 0 0 0 1 0"/>
<feBlend mode="normal" in2="shape" result="effect2_innerShadow_2009_2"/>
</filter>
<filter id="filter3_di_2009_2" x="123.247" y="43" width="57.587" height="58.1153" filterUnits="userSpaceOnUse" color-interpolation-filters="sRGB">
<feFlood flood-opacity="0" result="BackgroundImageFix"/>
<feColorMatrix in="SourceAlpha" type="matrix" values="0 0 0 0 0 0 0 0 0 0 0 0 0 0 0 0 0 0 127 0" result="hardAlpha"/>
<feOffset dy="2.11328"/>
<feGaussianBlur stdDeviation="1.05664"/>
<feComposite in2="hardAlpha" operator="out"/>
<feColorMatrix type="matrix" values="0 0 0 0 0 0 0 0 0 0 0 0 0 0 0 0 0 0 0.25 0"/>
<feBlend mode="normal" in2="BackgroundImageFix" result="effect1_dropShadow_2009_2"/>
<feBlend mode="normal" in="SourceGraphic" in2="effect1_dropShadow_2009_2" result="shape"/>
<feColorMatrix in="SourceAlpha" type="matrix" values="0 0 0 0 0 0 0 0 0 0 0 0 0 0 0 0 0 0 127 0" result="hardAlpha"/>
<feOffset dx="1.58496" dy="2.64161"/>
<feComposite in2="hardAlpha" operator="arithmetic" k2="-1" k3="1"/>
<feColorMatrix type="matrix" values="0 0 0 0 1 0 0 0 0 1 0 0 0 0 1 0 0 0 1 0"/>
<feBlend mode="normal" in2="shape" result="effect2_innerShadow_2009_2"/>
</filter>
<filter id="filter4_di_2009_2" x="206.608" y="43" width="57.587" height="58.1153" filterUnits="userSpaceOnUse" color-interpolation-filters="sRGB">
<feFlood flood-opacity="0" result="BackgroundImageFix"/>
<feColorMatrix in="SourceAlpha" type="matrix" values="0 0 0 0 0 0 0 0 0 0 0 0 0 0 0 0 0 0 127 0" result="hardAlpha"/>
<feOffset dy="2.11328"/>
<feGaussianBlur stdDeviation="1.05664"/>
<feComposite in2="hardAlpha" operator="out"/>
<feColorMatrix type="matrix" values="0 0 0 0 0 0 0 0 0 0 0 0 0 0 0 0 0 0 0.25 0"/>
<feBlend mode="normal" in2="BackgroundImageFix" result="effect1_dropShadow_2009_2"/>
<feBlend mode="normal" in="SourceGraphic" in2="effect1_dropShadow_2009_2" result="shape"/>
<feColorMatrix in="SourceAlpha" type="matrix" values="0 0 0 0 0 0 0 0 0 0 0 0 0 0 0 0 0 0 127 0" result="hardAlpha"/>
<feOffset dx="1.58496" dy="2.64161"/>
<feComposite in2="hardAlpha" operator="arithmetic" k2="-1" k3="1"/>
<feColorMatrix type="matrix" values="0 0 0 0 1 0 0 0 0 1 0 0 0 0 1 0 0 0 1 0"/>
<feBlend mode="normal" in2="shape" result="effect2_innerShadow_2009_2"/>
</filter>
<filter id="filter5_di_2009_2" x="287.968" y="43" width="57.587" height="58.1153" filterUnits="userSpaceOnUse" color-interpolation-filters="sRGB">
<feFlood flood-opacity="0" result="BackgroundImageFix"/>
<feColorMatrix in="SourceAlpha" type="matrix" values="0 0 0 0 0 0 0 0 0 0 0 0 0 0 0 0 0 0 127 0" result="hardAlpha"/>
<feOffset dy="2.11328"/>
<feGaussianBlur stdDeviation="1.05664"/>
<feComposite in2="hardAlpha" operator="out"/>
<feColorMatrix type="matrix" values="0 0 0 0 0 0 0 0 0 0 0 0 0 0 0 0 0 0 0.25 0"/>
<feBlend mode="normal" in2="BackgroundImageFix" result="effect1_dropShadow_2009_2"/>
<feBlend mode="normal" in="SourceGraphic" in2="effect1_dropShadow_2009_2" result="shape"/>
<feColorMatrix in="SourceAlpha" type="matrix" values="0 0 0 0 0 0 0 0 0 0 0 0 0 0 0 0 0 0 127 0" result="hardAlpha"/>
<feOffset dx="1.58496" dy="2.64161"/>
<feComposite in2="hardAlpha" operator="arithmetic" k2="-1" k3="1"/>
<feColorMatrix type="matrix" values="0 0 0 0 1 0 0 0 0 1 0 0 0 0 1 0 0 0 1 0"/>
<feBlend mode="normal" in2="shape" result="effect2_innerShadow_2009_2"/>
</filter>
<filter id="filter6_di_2009_2" x="39.8867" y="276.666" width="57.587" height="58.1153" filterUnits="userSpaceOnUse" color-interpolation-filters="sRGB">
<feFlood flood-opacity="0" result="BackgroundImageFix"/>
<feColorMatrix in="SourceAlpha" type="matrix" values="0 0 0 0 0 0 0 0 0 0 0 0 0 0 0 0 0 0 127 0" result="hardAlpha"/>
<feOffset dy="2.11328"/>
<feGaussianBlur stdDeviation="1.05664"/>
<feComposite in2="hardAlpha" operator="out"/>
<feColorMatrix type="matrix" values="0 0 0 0 0 0 0 0 0 0 0 0 0 0 0 0 0 0 0.25 0"/>
<feBlend mode="normal" in2="BackgroundImageFix" result="effect1_dropShadow_2009_2"/>
<feBlend mode="normal" in="SourceGraphic" in2="effect1_dropShadow_2009_2" result="shape"/>
<feColorMatrix in="SourceAlpha" type="matrix" values="0 0 0 0 0 0 0 0 0 0 0 0 0 0 0 0 0 0 127 0" result="hardAlpha"/>
<feOffset dx="1.58496" dy="2.64161"/>
<feComposite in2="hardAlpha" operator="arithmetic" k2="-1" k3="1"/>
<feColorMatrix type="matrix" values="0 0 0 0 1 0 0 0 0 1 0 0 0 0 1 0 0 0 1 0"/>
<feBlend mode="normal" in2="shape" result="effect2_innerShadow_2009_2"/>
</filter>
<filter id="filter7_di_2009_2" x="123.247" y="276.666" width="57.587" height="58.1153" filterUnits="userSpaceOnUse" color-interpolation-filters="sRGB">
<feFlood flood-opacity="0" result="BackgroundImageFix"/>
<feColorMatrix in="SourceAlpha" type="matrix" values="0 0 0 0 0 0 0 0 0 0 0 0 0 0 0 0 0 0 127 0" result="hardAlpha"/>
<feOffset dy="2.11328"/>
<feGaussianBlur stdDeviation="1.05664"/>
<feComposite in2="hardAlpha" operator="out"/>
<feColorMatrix type="matrix" values="0 0 0 0 0 0 0 0 0 0 0 0 0 0 0 0 0 0 0.25 0"/>
<feBlend mode="normal" in2="BackgroundImageFix" result="effect1_dropShadow_2009_2"/>
<feBlend mode="normal" in="SourceGraphic" in2="effect1_dropShadow_2009_2" result="shape"/>
<feColorMatrix in="SourceAlpha" type="matrix" values="0 0 0 0 0 0 0 0 0 0 0 0 0 0 0 0 0 0 127 0" result="hardAlpha"/>
<feOffset dx="1.58496" dy="2.64161"/>
<feComposite in2="hardAlpha" operator="arithmetic" k2="-1" k3="1"/>
<feColorMatrix type="matrix" values="0 0 0 0 1 0 0 0 0 1 0 0 0 0 1 0 0 0 1 0"/>
<feBlend mode="normal" in2="shape" result="effect2_innerShadow_2009_2"/>
</filter>
<filter id="filter8_di_2009_2" x="206.608" y="276.666" width="57.587" height="58.1153" filterUnits="userSpaceOnUse" color-interpolation-filters="sRGB">
<feFlood flood-opacity="0" result="BackgroundImageFix"/>
<feColorMatrix in="SourceAlpha" type="matrix" values="0 0 0 0 0 0 0 0 0 0 0 0 0 0 0 0 0 0 127 0" result="hardAlpha"/>
<feOffset dy="2.11328"/>
<feGaussianBlur stdDeviation="1.05664"/>
<feComposite in2="hardAlpha" operator="out"/>
<feColorMatrix type="matrix" values="0 0 0 0 0 0 0 0 0 0 0 0 0 0 0 0 0 0 0.25 0"/>
<feBlend mode="normal" in2="BackgroundImageFix" result="effect1_dropShadow_2009_2"/>
<feBlend mode="normal" in="SourceGraphic" in2="effect1_dropShadow_2009_2" result="shape"/>
<feColorMatrix in="SourceAlpha" type="matrix" values="0 0 0 0 0 0 0 0 0 0 0 0 0 0 0 0 0 0 127 0" result="hardAlpha"/>
<feOffset dx="1.58496" dy="2.64161"/>
<feComposite in2="hardAlpha" operator="arithmetic" k2="-1" k3="1"/>
<feColorMatrix type="matrix" values="0 0 0 0 1 0 0 0 0 1 0 0 0 0 1 0 0 0 1 0"/>
<feBlend mode="normal" in2="shape" result="effect2_innerShadow_2009_2"/>
</filter>
<filter id="filter9_di_2009_2" x="287.968" y="276.666" width="57.587" height="58.1153" filterUnits="userSpaceOnUse" color-interpolation-filters="sRGB">
<feFlood flood-opacity="0" result="BackgroundImageFix"/>
<feColorMatrix in="SourceAlpha" type="matrix" values="0 0 0 0 0 0 0 0 0 0 0 0 0 0 0 0 0 0 127 0" result="hardAlpha"/>
<feOffset dy="2.11328"/>
<feGaussianBlur stdDeviation="1.05664"/>
<feComposite in2="hardAlpha" operator="out"/>
<feColorMatrix type="matrix" values="0 0 0 0 0 0 0 0 0 0 0 0 0 0 0 0 0 0 0.25 0"/>
<feBlend mode="normal" in2="BackgroundImageFix" result="effect1_dropShadow_2009_2"/>
<feBlend mode="normal" in="SourceGraphic" in2="effect1_dropShadow_2009_2" result="shape"/>
<feColorMatrix in="SourceAlpha" type="matrix" values="0 0 0 0 0 0 0 0 0 0 0 0 0 0 0 0 0 0 127 0" result="hardAlpha"/>
<feOffset dx="1.58496" dy="2.64161"/>
<feComposite in2="hardAlpha" operator="arithmetic" k2="-1" k3="1"/>
<feColorMatrix type="matrix" values="0 0 0 0 1 0 0 0 0 1 0 0 0 0 1 0 0 0 1 0"/>
<feBlend mode="normal" in2="shape" result="effect2_innerShadow_2009_2"/>
</filter>
</defs>
</svg>
