<svg width="15" height="8" viewBox="0 0 15 8" fill="none" xmlns="http://www.w3.org/2000/svg">
<path d="M1.39392 7.99999C1.02934 7.99999 0.71959 7.88346 0.464673 7.65039C0.209756 7.41733 0.0820062 7.13386 0.0814229 6.79999C0.0808396 6.46613 0.20859 6.18293 0.464673 5.95039C0.720756 5.71786 1.03051 5.60106 1.39392 5.59999H12.7689C13.1335 5.59999 13.4435 5.71679 13.699 5.95039C13.9545 6.18399 14.082 6.46719 14.0814 6.79999C14.0808 7.13279 13.9534 7.41626 13.699 7.65039C13.4447 7.88453 13.1347 8.00106 12.7689 7.99999H1.39392ZM1.39392 2.4C1.02934 2.4 0.71959 2.28346 0.464673 2.0504C0.209756 1.81733 0.0820062 1.53387 0.0814229 1.2C0.0808396 0.866132 0.20859 0.582933 0.464673 0.3504C0.720756 0.117867 1.03051 0.00106667 1.39392 0H12.7689C13.1335 0 13.4435 0.1168 13.699 0.3504C13.9545 0.584 14.082 0.867199 14.0814 1.2C14.0808 1.5328 13.9534 1.81626 13.699 2.0504C13.4447 2.28453 13.1347 2.40106 12.7689 2.4H1.39392Z" fill="white"/>
</svg>
