<svg width="45" height="16" viewBox="0 0 45 16" fill="none" xmlns="http://www.w3.org/2000/svg">
<g filter="url(#filter0_d_4_489)">
<mask id="path-1-outside-1_4_489" maskUnits="userSpaceOnUse" x="1.5" y="0" width="42" height="12" fill="black">
<rect fill="white" x="1.5" width="42" height="12"/>
<path d="M8.16116 3.756C8.03049 3.32667 7.76916 3.112 7.37716 3.112C6.98516 3.112 6.71916 3.32667 6.57916 3.756C6.44849 4.18533 6.38316 4.848 6.38316 5.744C6.38316 7.47067 6.71449 8.334 7.37716 8.334C8.03982 8.334 8.37116 7.47067 8.37116 5.744C8.37116 4.848 8.30116 4.18533 8.16116 3.756ZM10.4292 8.978C9.58916 9.75267 8.57182 10.14 7.37716 10.14C6.18249 10.14 5.16516 9.75267 4.32516 8.978C3.48516 8.194 3.06516 7.12533 3.06516 5.772C3.06516 4.41867 3.45249 3.34067 4.22716 2.538C5.00182 1.726 6.05182 1.32 7.37716 1.32C8.70249 1.32 9.75249 1.726 10.5272 2.538C11.3018 3.34067 11.6892 4.41867 11.6892 5.772C11.6892 7.12533 11.2692 8.194 10.4292 8.978ZM17.3487 3.756C17.218 3.32667 16.9567 3.112 16.5647 3.112C16.1727 3.112 15.9067 3.32667 15.7667 3.756C15.636 4.18533 15.5707 4.848 15.5707 5.744C15.5707 7.47067 15.902 8.334 16.5647 8.334C17.2273 8.334 17.5587 7.47067 17.5587 5.744C17.5587 4.848 17.4887 4.18533 17.3487 3.756ZM19.6167 8.978C18.7767 9.75267 17.7593 10.14 16.5647 10.14C15.37 10.14 14.3527 9.75267 13.5127 8.978C12.6727 8.194 12.2527 7.12533 12.2527 5.772C12.2527 4.41867 12.64 3.34067 13.4147 2.538C14.1893 1.726 15.2393 1.32 16.5647 1.32C17.89 1.32 18.94 1.726 19.7147 2.538C20.4893 3.34067 20.8767 4.41867 20.8767 5.772C20.8767 7.12533 20.4567 8.194 19.6167 8.978ZM21.6922 8.418C21.8695 8.222 22.1355 8.124 22.4902 8.124C22.8448 8.124 23.1108 8.222 23.2882 8.418C23.4655 8.60467 23.5542 8.84267 23.5542 9.132C23.5542 9.42133 23.4655 9.664 23.2882 9.86C23.1108 10.0467 22.8448 10.14 22.4902 10.14C22.1355 10.14 21.8695 10.0467 21.6922 9.86C21.5148 9.664 21.4262 9.42133 21.4262 9.132C21.4262 8.84267 21.5148 8.60467 21.6922 8.418ZM21.6922 3.462C21.8695 3.266 22.1355 3.168 22.4902 3.168C22.8448 3.168 23.1108 3.266 23.2882 3.462C23.4655 3.64867 23.5542 3.88667 23.5542 4.176C23.5542 4.46533 23.4655 4.708 23.2882 4.904C23.1108 5.09067 22.8448 5.184 22.4902 5.184C22.1355 5.184 21.8695 5.09067 21.6922 4.904C21.5148 4.708 21.4262 4.46533 21.4262 4.176C21.4262 3.88667 21.5148 3.64867 21.6922 3.462ZM29.2158 3.756C29.0852 3.32667 28.8238 3.112 28.4318 3.112C28.0398 3.112 27.7738 3.32667 27.6338 3.756C27.5032 4.18533 27.4378 4.848 27.4378 5.744C27.4378 7.47067 27.7692 8.334 28.4318 8.334C29.0945 8.334 29.4258 7.47067 29.4258 5.744C29.4258 4.848 29.3558 4.18533 29.2158 3.756ZM31.4838 8.978C30.6438 9.75267 29.6265 10.14 28.4318 10.14C27.2372 10.14 26.2198 9.75267 25.3798 8.978C24.5398 8.194 24.1198 7.12533 24.1198 5.772C24.1198 4.41867 24.5072 3.34067 25.2818 2.538C26.0565 1.726 27.1065 1.32 28.4318 1.32C29.7572 1.32 30.8072 1.726 31.5818 2.538C32.3565 3.34067 32.7438 4.41867 32.7438 5.772C32.7438 7.12533 32.3238 8.194 31.4838 8.978ZM38.4033 3.756C38.2727 3.32667 38.0113 3.112 37.6193 3.112C37.2273 3.112 36.9613 3.32667 36.8213 3.756C36.6907 4.18533 36.6253 4.848 36.6253 5.744C36.6253 7.47067 36.9567 8.334 37.6193 8.334C38.282 8.334 38.6133 7.47067 38.6133 5.744C38.6133 4.848 38.5433 4.18533 38.4033 3.756ZM40.6713 8.978C39.8313 9.75267 38.814 10.14 37.6193 10.14C36.4247 10.14 35.4073 9.75267 34.5673 8.978C33.7273 8.194 33.3073 7.12533 33.3073 5.772C33.3073 4.41867 33.6947 3.34067 34.4693 2.538C35.244 1.726 36.294 1.32 37.6193 1.32C38.9447 1.32 39.9947 1.726 40.7693 2.538C41.544 3.34067 41.9313 4.41867 41.9313 5.772C41.9313 7.12533 41.5113 8.194 40.6713 8.978Z"/>
</mask>
<path d="M8.16116 3.756C8.03049 3.32667 7.76916 3.112 7.37716 3.112C6.98516 3.112 6.71916 3.32667 6.57916 3.756C6.44849 4.18533 6.38316 4.848 6.38316 5.744C6.38316 7.47067 6.71449 8.334 7.37716 8.334C8.03982 8.334 8.37116 7.47067 8.37116 5.744C8.37116 4.848 8.30116 4.18533 8.16116 3.756ZM10.4292 8.978C9.58916 9.75267 8.57182 10.14 7.37716 10.14C6.18249 10.14 5.16516 9.75267 4.32516 8.978C3.48516 8.194 3.06516 7.12533 3.06516 5.772C3.06516 4.41867 3.45249 3.34067 4.22716 2.538C5.00182 1.726 6.05182 1.32 7.37716 1.32C8.70249 1.32 9.75249 1.726 10.5272 2.538C11.3018 3.34067 11.6892 4.41867 11.6892 5.772C11.6892 7.12533 11.2692 8.194 10.4292 8.978ZM17.3487 3.756C17.218 3.32667 16.9567 3.112 16.5647 3.112C16.1727 3.112 15.9067 3.32667 15.7667 3.756C15.636 4.18533 15.5707 4.848 15.5707 5.744C15.5707 7.47067 15.902 8.334 16.5647 8.334C17.2273 8.334 17.5587 7.47067 17.5587 5.744C17.5587 4.848 17.4887 4.18533 17.3487 3.756ZM19.6167 8.978C18.7767 9.75267 17.7593 10.14 16.5647 10.14C15.37 10.14 14.3527 9.75267 13.5127 8.978C12.6727 8.194 12.2527 7.12533 12.2527 5.772C12.2527 4.41867 12.64 3.34067 13.4147 2.538C14.1893 1.726 15.2393 1.32 16.5647 1.32C17.89 1.32 18.94 1.726 19.7147 2.538C20.4893 3.34067 20.8767 4.41867 20.8767 5.772C20.8767 7.12533 20.4567 8.194 19.6167 8.978ZM21.6922 8.418C21.8695 8.222 22.1355 8.124 22.4902 8.124C22.8448 8.124 23.1108 8.222 23.2882 8.418C23.4655 8.60467 23.5542 8.84267 23.5542 9.132C23.5542 9.42133 23.4655 9.664 23.2882 9.86C23.1108 10.0467 22.8448 10.14 22.4902 10.14C22.1355 10.14 21.8695 10.0467 21.6922 9.86C21.5148 9.664 21.4262 9.42133 21.4262 9.132C21.4262 8.84267 21.5148 8.60467 21.6922 8.418ZM21.6922 3.462C21.8695 3.266 22.1355 3.168 22.4902 3.168C22.8448 3.168 23.1108 3.266 23.2882 3.462C23.4655 3.64867 23.5542 3.88667 23.5542 4.176C23.5542 4.46533 23.4655 4.708 23.2882 4.904C23.1108 5.09067 22.8448 5.184 22.4902 5.184C22.1355 5.184 21.8695 5.09067 21.6922 4.904C21.5148 4.708 21.4262 4.46533 21.4262 4.176C21.4262 3.88667 21.5148 3.64867 21.6922 3.462ZM29.2158 3.756C29.0852 3.32667 28.8238 3.112 28.4318 3.112C28.0398 3.112 27.7738 3.32667 27.6338 3.756C27.5032 4.18533 27.4378 4.848 27.4378 5.744C27.4378 7.47067 27.7692 8.334 28.4318 8.334C29.0945 8.334 29.4258 7.47067 29.4258 5.744C29.4258 4.848 29.3558 4.18533 29.2158 3.756ZM31.4838 8.978C30.6438 9.75267 29.6265 10.14 28.4318 10.14C27.2372 10.14 26.2198 9.75267 25.3798 8.978C24.5398 8.194 24.1198 7.12533 24.1198 5.772C24.1198 4.41867 24.5072 3.34067 25.2818 2.538C26.0565 1.726 27.1065 1.32 28.4318 1.32C29.7572 1.32 30.8072 1.726 31.5818 2.538C32.3565 3.34067 32.7438 4.41867 32.7438 5.772C32.7438 7.12533 32.3238 8.194 31.4838 8.978ZM38.4033 3.756C38.2727 3.32667 38.0113 3.112 37.6193 3.112C37.2273 3.112 36.9613 3.32667 36.8213 3.756C36.6907 4.18533 36.6253 4.848 36.6253 5.744C36.6253 7.47067 36.9567 8.334 37.6193 8.334C38.282 8.334 38.6133 7.47067 38.6133 5.744C38.6133 4.848 38.5433 4.18533 38.4033 3.756ZM40.6713 8.978C39.8313 9.75267 38.814 10.14 37.6193 10.14C36.4247 10.14 35.4073 9.75267 34.5673 8.978C33.7273 8.194 33.3073 7.12533 33.3073 5.772C33.3073 4.41867 33.6947 3.34067 34.4693 2.538C35.244 1.726 36.294 1.32 37.6193 1.32C38.9447 1.32 39.9947 1.726 40.7693 2.538C41.544 3.34067 41.9313 4.41867 41.9313 5.772C41.9313 7.12533 41.5113 8.194 40.6713 8.978Z" fill="white"/>
<path d="M8.16116 3.756L7.20448 4.04716L7.20736 4.05662L7.21043 4.06602L8.16116 3.756ZM6.57916 3.756L5.62843 3.44598L5.62536 3.45538L5.62248 3.46484L6.57916 3.756ZM10.4292 8.978L11.1071 9.71313L11.1115 9.70906L10.4292 8.978ZM4.32516 8.978L3.64283 9.70907L3.64722 9.71312L4.32516 8.978ZM4.22716 2.538L4.94671 3.23246L4.9507 3.22828L4.22716 2.538ZM10.5272 2.538L9.8036 3.22829L9.80761 3.23244L10.5272 2.538ZM8.16116 3.756L9.11783 3.46484C9.01349 3.12199 8.82755 2.76778 8.5019 2.50027C8.16454 2.22316 7.76594 2.112 7.37716 2.112V3.112V4.112C7.38372 4.112 7.36658 4.11282 7.3345 4.10228C7.3006 4.09114 7.26433 4.07194 7.23242 4.04573C7.16809 3.99289 7.17816 3.96067 7.20448 4.04716L8.16116 3.756ZM7.37716 3.112V2.112C6.98793 2.112 6.59214 2.22323 6.25564 2.4948C5.93073 2.75701 5.73953 3.10526 5.62843 3.44598L6.57916 3.756L7.52989 4.06602C7.55878 3.9774 7.57058 4.00366 7.51168 4.0512C7.48239 4.07483 7.44877 4.09255 7.41693 4.10294C7.38674 4.11279 7.37072 4.112 7.37716 4.112V3.112ZM6.57916 3.756L5.62248 3.46484C5.44691 4.0417 5.38316 4.82704 5.38316 5.744H6.38316H7.38316C7.38316 4.86896 7.45007 4.32896 7.53583 4.04716L6.57916 3.756ZM6.38316 5.744H5.38316C5.38316 6.64248 5.46541 7.43864 5.69805 8.0448C5.8172 8.35526 5.99868 8.67709 6.28654 8.92711C6.59404 9.19419 6.97229 9.334 7.37716 9.334V8.334V7.334C7.45068 7.334 7.53902 7.36589 7.59802 7.41714C7.63738 7.45132 7.61178 7.44941 7.56526 7.3282C7.46656 7.07103 7.38316 6.57219 7.38316 5.744H6.38316ZM7.37716 8.334V9.334C7.78202 9.334 8.16027 9.19419 8.46777 8.92711C8.75563 8.67709 8.93712 8.35526 9.05626 8.0448C9.2889 7.43864 9.37116 6.64248 9.37116 5.744H8.37116H7.37116C7.37116 6.57219 7.28775 7.07103 7.18905 7.3282C7.14253 7.44941 7.11693 7.45132 7.15629 7.41714C7.21529 7.36589 7.30363 7.334 7.37716 7.334V8.334ZM8.37116 5.744H9.37116C9.37116 4.82502 9.30283 4.03153 9.11189 3.44598L8.16116 3.756L7.21043 4.06602C7.29949 4.33914 7.37116 4.87098 7.37116 5.744H8.37116ZM10.4292 8.978L9.75122 8.24288C9.10494 8.83889 8.33317 9.14 7.37716 9.14V10.14V11.14C8.81047 11.14 10.0734 10.6664 11.1071 9.71312L10.4292 8.978ZM7.37716 10.14V9.14C6.42114 9.14 5.64937 8.83889 5.0031 8.24288L4.32516 8.978L3.64722 9.71312C4.68094 10.6664 5.94384 11.14 7.37716 11.14V10.14ZM4.32516 8.978L5.00747 8.24694C4.40626 7.68581 4.06516 6.9018 4.06516 5.772H3.06516H2.06516C2.06516 7.34886 2.56406 8.70219 3.64284 9.70906L4.32516 8.978ZM3.06516 5.772H4.06516C4.06516 4.61915 4.38889 3.81041 4.9467 3.23244L4.22716 2.538L3.50761 1.84355C2.51608 2.87092 2.06516 4.21818 2.06516 5.772H3.06516ZM4.22716 2.538L4.9507 3.22828C5.5026 2.64978 6.27159 2.32 7.37716 2.32V1.32V0.32C5.83206 0.32 4.50105 0.802217 3.50361 1.84772L4.22716 2.538ZM7.37716 1.32V2.32C8.48273 2.32 9.25171 2.64978 9.80361 3.22828L10.5272 2.538L11.2507 1.84772C10.2533 0.802217 8.92225 0.32 7.37716 0.32V1.32ZM10.5272 2.538L9.80761 3.23244C10.3654 3.81041 10.6892 4.61915 10.6892 5.772H11.6892H12.6892C12.6892 4.21818 12.2382 2.87092 11.2467 1.84355L10.5272 2.538ZM11.6892 5.772H10.6892C10.6892 6.9018 10.3481 7.68581 9.74684 8.24694L10.4292 8.978L11.1115 9.70906C12.1903 8.70219 12.6892 7.34886 12.6892 5.772H11.6892ZM17.3487 3.756L16.392 4.04716L16.3949 4.05662L16.3979 4.06602L17.3487 3.756ZM15.7667 3.756L14.8159 3.44598L14.8129 3.45538L14.81 3.46484L15.7667 3.756ZM19.6167 8.978L20.2946 9.71313L20.299 9.70906L19.6167 8.978ZM13.5127 8.978L12.8303 9.70907L12.8347 9.71312L13.5127 8.978ZM13.4147 2.538L14.1342 3.23246L14.1382 3.22828L13.4147 2.538ZM19.7147 2.538L18.9911 3.22829L18.9951 3.23244L19.7147 2.538ZM17.3487 3.756L18.3053 3.46484C18.201 3.12199 18.0151 2.76778 17.6894 2.50027C17.352 2.22316 16.9534 2.112 16.5647 2.112V3.112V4.112C16.5712 4.112 16.5541 4.11282 16.522 4.10228C16.4881 4.09114 16.4518 4.07194 16.4199 4.04573C16.3556 3.99289 16.3657 3.96067 16.392 4.04716L17.3487 3.756ZM16.5647 3.112V2.112C16.1754 2.112 15.7796 2.22323 15.4431 2.4948C15.1182 2.75701 14.927 3.10526 14.8159 3.44598L15.7667 3.756L16.7174 4.06602C16.7463 3.9774 16.7581 4.00366 16.6992 4.0512C16.6699 4.07483 16.6363 4.09255 16.6044 4.10294C16.5742 4.11279 16.5582 4.112 16.5647 4.112V3.112ZM15.7667 3.756L14.81 3.46484C14.6344 4.0417 14.5707 4.82704 14.5707 5.744H15.5707H16.5707C16.5707 4.86896 16.6376 4.32896 16.7233 4.04716L15.7667 3.756ZM15.5707 5.744H14.5707C14.5707 6.64248 14.6529 7.43864 14.8856 8.0448C15.0047 8.35526 15.1862 8.67709 15.474 8.92711C15.7815 9.19419 16.1598 9.334 16.5647 9.334V8.334V7.334C16.6382 7.334 16.7265 7.36589 16.7855 7.41714C16.8249 7.45132 16.7993 7.44941 16.7528 7.3282C16.6541 7.07103 16.5707 6.57219 16.5707 5.744H15.5707ZM16.5647 8.334V9.334C16.9695 9.334 17.3478 9.19419 17.6553 8.92711C17.9431 8.67709 18.1246 8.35526 18.2438 8.0448C18.4764 7.43864 18.5587 6.64248 18.5587 5.744H17.5587H16.5587C16.5587 6.57219 16.4752 7.07103 16.3766 7.3282C16.33 7.44941 16.3044 7.45132 16.3438 7.41714C16.4028 7.36589 16.4911 7.334 16.5647 7.334V8.334ZM17.5587 5.744H18.5587C18.5587 4.82502 18.4903 4.03153 18.2994 3.44598L17.3487 3.756L16.3979 4.06602C16.487 4.33914 16.5587 4.87098 16.5587 5.744H17.5587ZM19.6167 8.978L18.9387 8.24288C18.2924 8.83889 17.5207 9.14 16.5647 9.14V10.14V11.14C17.998 11.14 19.2609 10.6664 20.2946 9.71312L19.6167 8.978ZM16.5647 10.14V9.14C15.6086 9.14 14.8369 8.83889 14.1906 8.24288L13.5127 8.978L12.8347 9.71312C13.8684 10.6664 15.1313 11.14 16.5647 11.14V10.14ZM13.5127 8.978L14.195 8.24694C13.5938 7.68581 13.2527 6.9018 13.2527 5.772H12.2527H11.2527C11.2527 7.34886 11.7516 8.70219 12.8303 9.70906L13.5127 8.978ZM12.2527 5.772H13.2527C13.2527 4.61915 13.5764 3.81041 14.1342 3.23244L13.4147 2.538L12.6951 1.84355C11.7036 2.87092 11.2527 4.21818 11.2527 5.772H12.2527ZM13.4147 2.538L14.1382 3.22828C14.6901 2.64978 15.4591 2.32 16.5647 2.32V1.32V0.32C15.0196 0.32 13.6885 0.802217 12.6911 1.84772L13.4147 2.538ZM16.5647 1.32V2.32C17.6702 2.32 18.4392 2.64978 18.9911 3.22828L19.7147 2.538L20.4382 1.84772C19.4408 0.802217 18.1098 0.32 16.5647 0.32V1.32ZM19.7147 2.538L18.9951 3.23244C19.5529 3.81041 19.8767 4.61915 19.8767 5.772H20.8767H21.8767C21.8767 4.21818 21.4257 2.87092 20.4342 1.84355L19.7147 2.538ZM20.8767 5.772H19.8767C19.8767 6.9018 19.5356 7.68581 18.9343 8.24694L19.6167 8.978L20.299 9.70906C21.3778 8.70219 21.8767 7.34886 21.8767 5.772H20.8767ZM21.6922 8.418L22.4172 9.10675L22.4255 9.09793L22.4337 9.08891L21.6922 8.418ZM23.2882 8.418L22.5466 9.08891L22.5548 9.09793L22.5632 9.10675L23.2882 8.418ZM23.2882 9.86L24.0132 10.5487L24.0215 10.5399L24.0297 10.5309L23.2882 9.86ZM21.6922 9.86L20.9506 10.5309L20.9588 10.5399L20.9672 10.5487L21.6922 9.86ZM21.6922 3.462L22.4172 4.15075L22.4255 4.14193L22.4337 4.13291L21.6922 3.462ZM23.2882 3.462L22.5466 4.13291L22.5548 4.14193L22.5632 4.15075L23.2882 3.462ZM23.2882 4.904L24.0132 5.59275L24.0215 5.58393L24.0297 5.57491L23.2882 4.904ZM21.6922 4.904L20.9506 5.57491L20.9588 5.58393L20.9672 5.59275L21.6922 4.904ZM21.6922 8.418L22.4337 9.08891C22.4217 9.10213 22.4081 9.11374 22.3945 9.12277C22.3811 9.13163 22.3719 9.13527 22.3704 9.13584C22.3688 9.13642 22.4023 9.124 22.4902 9.124V8.124V7.124C21.9541 7.124 21.3762 7.27672 20.9506 7.74709L21.6922 8.418ZM22.4902 8.124V9.124C22.578 9.124 22.6115 9.13642 22.61 9.13584C22.6084 9.13527 22.5992 9.13163 22.5859 9.12277C22.5722 9.11374 22.5586 9.10213 22.5466 9.08891L23.2882 8.418L24.0297 7.74709C23.6041 7.27672 23.0262 7.124 22.4902 7.124V8.124ZM23.2882 8.418L22.5632 9.10675C22.5628 9.10634 22.5602 9.10352 22.5571 9.09846C22.5539 9.09337 22.5517 9.08869 22.5506 9.08561C22.5495 9.08267 22.5503 9.08376 22.5514 9.09044C22.5525 9.0973 22.5542 9.11073 22.5542 9.132H23.5542H24.5542C24.5542 8.62069 24.3894 8.12527 24.0132 7.72925L23.2882 8.418ZM23.5542 9.132H22.5542C22.5542 9.15322 22.5525 9.16746 22.5511 9.17585C22.5498 9.18408 22.5485 9.18763 22.5484 9.18781C22.5484 9.18788 22.5488 9.18688 22.5495 9.18575C22.5501 9.18466 22.5497 9.18574 22.5466 9.18909L23.2882 9.86L24.0297 10.5309C24.3897 10.133 24.5542 9.64385 24.5542 9.132H23.5542ZM23.2882 9.86L22.5632 9.17125C22.5768 9.15688 22.5913 9.14535 22.6045 9.13701C22.6174 9.12887 22.6253 9.12616 22.6246 9.1264C22.6214 9.12752 22.5826 9.14 22.4902 9.14V10.14V11.14C23.0124 11.14 23.5845 11 24.0132 10.5487L23.2882 9.86ZM22.4902 10.14V9.14C22.3977 9.14 22.3589 9.12752 22.3557 9.1264C22.3551 9.12616 22.3629 9.12887 22.3758 9.13701C22.389 9.14535 22.4035 9.15688 22.4172 9.17125L21.6922 9.86L20.9672 10.5487C21.3959 11 21.9679 11.14 22.4902 11.14V10.14ZM21.6922 9.86L22.4337 9.18909C22.4307 9.18574 22.4302 9.18466 22.4309 9.18575C22.4315 9.18688 22.4319 9.18788 22.4319 9.18781C22.4319 9.18763 22.4305 9.18408 22.4292 9.17585C22.4278 9.16746 22.4262 9.15322 22.4262 9.132H21.4262H20.4262C20.4262 9.64385 20.5906 10.133 20.9506 10.5309L21.6922 9.86ZM21.4262 9.132H22.4262C22.4262 9.11073 22.4278 9.0973 22.4289 9.09044C22.4301 9.08376 22.4308 9.08267 22.4297 9.08561C22.4286 9.08869 22.4264 9.09337 22.4233 9.09846C22.4201 9.10352 22.4175 9.10634 22.4172 9.10675L21.6922 8.418L20.9672 7.72925C20.5909 8.12527 20.4262 8.62069 20.4262 9.132H21.4262ZM21.6922 3.462L22.4337 4.13291C22.4217 4.14613 22.4081 4.15774 22.3945 4.16677C22.3811 4.17563 22.3719 4.17927 22.3704 4.17984C22.3688 4.18042 22.4023 4.168 22.4902 4.168V3.168V2.168C21.9541 2.168 21.3762 2.32072 20.9506 2.79109L21.6922 3.462ZM22.4902 3.168V4.168C22.578 4.168 22.6115 4.18042 22.61 4.17984C22.6084 4.17927 22.5992 4.17563 22.5859 4.16677C22.5722 4.15774 22.5586 4.14613 22.5466 4.13291L23.2882 3.462L24.0297 2.79109C23.6041 2.32072 23.0262 2.168 22.4902 2.168V3.168ZM23.2882 3.462L22.5632 4.15075C22.5628 4.15034 22.5602 4.14752 22.5571 4.14246C22.5539 4.13737 22.5517 4.13269 22.5506 4.12961C22.5495 4.12667 22.5503 4.12776 22.5514 4.13444C22.5525 4.1413 22.5542 4.15473 22.5542 4.176H23.5542H24.5542C24.5542 3.66469 24.3894 3.16927 24.0132 2.77325L23.2882 3.462ZM23.5542 4.176H22.5542C22.5542 4.19722 22.5525 4.21146 22.5511 4.21985C22.5498 4.22808 22.5485 4.23163 22.5484 4.23181C22.5484 4.23188 22.5488 4.23088 22.5495 4.22975C22.5501 4.22866 22.5497 4.22974 22.5466 4.23309L23.2882 4.904L24.0297 5.57491C24.3897 5.17703 24.5542 4.68785 24.5542 4.176H23.5542ZM23.2882 4.904L22.5632 4.21525C22.5768 4.20088 22.5913 4.18935 22.6045 4.18101C22.6174 4.17287 22.6253 4.17016 22.6246 4.1704C22.6214 4.17152 22.5826 4.184 22.4902 4.184V5.184V6.184C23.0124 6.184 23.5845 6.04402 24.0132 5.59275L23.2882 4.904ZM22.4902 5.184V4.184C22.3977 4.184 22.3589 4.17152 22.3557 4.1704C22.3551 4.17016 22.3629 4.17287 22.3758 4.18101C22.389 4.18935 22.4035 4.20088 22.4172 4.21525L21.6922 4.904L20.9672 5.59275C21.3959 6.04402 21.9679 6.184 22.4902 6.184V5.184ZM21.6922 4.904L22.4337 4.23309C22.4307 4.22974 22.4302 4.22866 22.4309 4.22975C22.4315 4.23088 22.4319 4.23188 22.4319 4.23181C22.4319 4.23163 22.4305 4.22808 22.4292 4.21985C22.4278 4.21146 22.4262 4.19722 22.4262 4.176H21.4262H20.4262C20.4262 4.68785 20.5906 5.17703 20.9506 5.57491L21.6922 4.904ZM21.4262 4.176H22.4262C22.4262 4.15473 22.4278 4.1413 22.4289 4.13444C22.4301 4.12776 22.4308 4.12667 22.4297 4.12961C22.4286 4.13269 22.4264 4.13737 22.4233 4.14246C22.4201 4.14752 22.4175 4.15034 22.4172 4.15075L21.6922 3.462L20.9672 2.77325C20.5909 3.16927 20.4262 3.66469 20.4262 4.176H21.4262ZM29.2158 3.756L28.2592 4.04716L28.262 4.05662L28.2651 4.06602L29.2158 3.756ZM27.6338 3.756L26.6831 3.44598L26.68 3.45538L26.6772 3.46484L27.6338 3.756ZM31.4838 8.978L32.1618 9.71313L32.1662 9.70906L31.4838 8.978ZM25.3798 8.978L24.6975 9.70907L24.7019 9.71312L25.3798 8.978ZM25.2818 2.538L26.0014 3.23246L26.0054 3.22828L25.2818 2.538ZM31.5818 2.538L30.8583 3.22829L30.8623 3.23244L31.5818 2.538ZM29.2158 3.756L30.1725 3.46484C30.0682 3.12199 29.8822 2.76778 29.5566 2.50027C29.2192 2.22316 28.8206 2.112 28.4318 2.112V3.112V4.112C28.4384 4.112 28.4213 4.11282 28.3892 4.10228C28.3553 4.09114 28.319 4.07194 28.2871 4.04573C28.2228 3.99289 28.2328 3.96067 28.2592 4.04716L29.2158 3.756ZM28.4318 3.112V2.112C28.0426 2.112 27.6468 2.22323 27.3103 2.4948C26.9854 2.75701 26.7942 3.10526 26.6831 3.44598L27.6338 3.756L28.5846 4.06602C28.6135 3.9774 28.6253 4.00366 28.5664 4.0512C28.5371 4.07483 28.5035 4.09255 28.4716 4.10294C28.4414 4.11279 28.4254 4.112 28.4318 4.112V3.112ZM27.6338 3.756L26.6772 3.46484C26.5016 4.0417 26.4378 4.82704 26.4378 5.744H27.4378H28.4378C28.4378 4.86896 28.5048 4.32896 28.5905 4.04716L27.6338 3.756ZM27.4378 5.744H26.4378C26.4378 6.64248 26.5201 7.43864 26.7527 8.0448C26.8719 8.35526 27.0534 8.67709 27.3412 8.92711C27.6487 9.19419 28.027 9.334 28.4318 9.334V8.334V7.334C28.5054 7.334 28.5937 7.36589 28.6527 7.41714C28.6921 7.45132 28.6665 7.44941 28.6199 7.3282C28.5213 7.07103 28.4378 6.57219 28.4378 5.744H27.4378ZM28.4318 8.334V9.334C28.8367 9.334 29.215 9.19419 29.5225 8.92711C29.8103 8.67709 29.9918 8.35526 30.1109 8.0448C30.3436 7.43864 30.4258 6.64248 30.4258 5.744H29.4258H28.4258C28.4258 6.57219 28.3424 7.07103 28.2437 7.3282C28.1972 7.44941 28.1716 7.45132 28.211 7.41714C28.27 7.36589 28.3583 7.334 28.4318 7.334V8.334ZM29.4258 5.744H30.4258C30.4258 4.82502 30.3575 4.03153 30.1666 3.44598L29.2158 3.756L28.2651 4.06602C28.3542 4.33914 28.4258 4.87098 28.4258 5.744H29.4258ZM31.4838 8.978L30.8059 8.24288C30.1596 8.83889 29.3879 9.14 28.4318 9.14V10.14V11.14C29.8652 11.14 31.1281 10.6664 32.1618 9.71312L31.4838 8.978ZM28.4318 10.14V9.14C27.4758 9.14 26.7041 8.83889 26.0578 8.24288L25.3798 8.978L24.7019 9.71312C25.7356 10.6664 26.9985 11.14 28.4318 11.14V10.14ZM25.3798 8.978L26.0622 8.24694C25.4609 7.68581 25.1198 6.9018 25.1198 5.772H24.1198H23.1198C23.1198 7.34886 23.6187 8.70219 24.6975 9.70906L25.3798 8.978ZM24.1198 5.772H25.1198C25.1198 4.61915 25.4436 3.81041 26.0014 3.23244L25.2818 2.538L24.5623 1.84355C23.5708 2.87092 23.1198 4.21818 23.1198 5.772H24.1198ZM25.2818 2.538L26.0054 3.22828C26.5573 2.64978 27.3263 2.32 28.4318 2.32V1.32V0.32C26.8867 0.32 25.5557 0.802217 24.5583 1.84772L25.2818 2.538ZM28.4318 1.32V2.32C29.5374 2.32 30.3064 2.64978 30.8583 3.22828L31.5818 2.538L32.3054 1.84772C31.308 0.802217 29.9769 0.32 28.4318 0.32V1.32ZM31.5818 2.538L30.8623 3.23244C31.4201 3.81041 31.7438 4.61915 31.7438 5.772H32.7438H33.7438C33.7438 4.21818 33.2929 2.87092 32.3014 1.84355L31.5818 2.538ZM32.7438 5.772H31.7438C31.7438 6.9018 31.4027 7.68581 30.8015 8.24694L31.4838 8.978L32.1662 9.70906C33.2449 8.70219 33.7438 7.34886 33.7438 5.772H32.7438ZM38.4033 3.756L37.4467 4.04716L37.4495 4.05662L37.4526 4.06602L38.4033 3.756ZM36.8213 3.756L35.8706 3.44598L35.8675 3.45538L35.8647 3.46484L36.8213 3.756ZM40.6713 8.978L41.3493 9.71313L41.3537 9.70906L40.6713 8.978ZM34.5673 8.978L33.885 9.70907L33.8894 9.71312L34.5673 8.978ZM34.4693 2.538L35.1889 3.23246L35.1929 3.22828L34.4693 2.538ZM40.7693 2.538L40.0458 3.22829L40.0498 3.23244L40.7693 2.538ZM38.4033 3.756L39.36 3.46484C39.2557 3.12199 39.0697 2.76778 38.7441 2.50027C38.4067 2.22316 38.0081 2.112 37.6193 2.112V3.112V4.112C37.6259 4.112 37.6088 4.11282 37.5767 4.10228C37.5428 4.09114 37.5065 4.07194 37.4746 4.04573C37.4103 3.99289 37.4203 3.96067 37.4467 4.04716L38.4033 3.756ZM37.6193 3.112V2.112C37.2301 2.112 36.8343 2.22323 36.4978 2.4948C36.1729 2.75701 35.9817 3.10526 35.8706 3.44598L36.8213 3.756L37.7721 4.06602C37.801 3.9774 37.8128 4.00366 37.7539 4.0512C37.7246 4.07483 37.691 4.09255 37.6591 4.10294C37.6289 4.11279 37.6129 4.112 37.6193 4.112V3.112ZM36.8213 3.756L35.8647 3.46484C35.6891 4.0417 35.6253 4.82704 35.6253 5.744H36.6253H37.6253C37.6253 4.86896 37.6923 4.32896 37.778 4.04716L36.8213 3.756ZM36.6253 5.744H35.6253C35.6253 6.64248 35.7076 7.43864 35.9402 8.0448C36.0594 8.35526 36.2409 8.67709 36.5287 8.92711C36.8362 9.19419 37.2145 9.334 37.6193 9.334V8.334V7.334C37.6929 7.334 37.7812 7.36589 37.8402 7.41714C37.8796 7.45132 37.854 7.44941 37.8074 7.3282C37.7088 7.07103 37.6253 6.57219 37.6253 5.744H36.6253ZM37.6193 8.334V9.334C38.0242 9.334 38.4025 9.19419 38.71 8.92711C38.9978 8.67709 39.1793 8.35526 39.2984 8.0448C39.5311 7.43864 39.6133 6.64248 39.6133 5.744H38.6133H37.6133C37.6133 6.57219 37.5299 7.07103 37.4312 7.3282C37.3847 7.44941 37.3591 7.45132 37.3985 7.41714C37.4575 7.36589 37.5458 7.334 37.6193 7.334V8.334ZM38.6133 5.744H39.6133C39.6133 4.82502 39.545 4.03153 39.3541 3.44598L38.4033 3.756L37.4526 4.06602C37.5417 4.33914 37.6133 4.87098 37.6133 5.744H38.6133ZM40.6713 8.978L39.9934 8.24288C39.3471 8.83889 38.5754 9.14 37.6193 9.14V10.14V11.14C39.0527 11.14 40.3156 10.6664 41.3493 9.71312L40.6713 8.978ZM37.6193 10.14V9.14C36.6633 9.14 35.8916 8.83889 35.2453 8.24288L34.5673 8.978L33.8894 9.71312C34.9231 10.6664 36.186 11.14 37.6193 11.14V10.14ZM34.5673 8.978L35.2497 8.24694C34.6484 7.68581 34.3073 6.9018 34.3073 5.772H33.3073H32.3073C32.3073 7.34886 32.8062 8.70219 33.885 9.70906L34.5673 8.978ZM33.3073 5.772H34.3073C34.3073 4.61915 34.6311 3.81041 35.1889 3.23244L34.4693 2.538L33.7498 1.84355C32.7583 2.87092 32.3073 4.21818 32.3073 5.772H33.3073ZM34.4693 2.538L35.1929 3.22828C35.7448 2.64978 36.5138 2.32 37.6193 2.32V1.32V0.32C36.0742 0.32 34.7432 0.802217 33.7458 1.84772L34.4693 2.538ZM37.6193 1.32V2.32C38.7249 2.32 39.4939 2.64978 40.0458 3.22828L40.7693 2.538L41.4929 1.84772C40.4955 0.802217 39.1644 0.32 37.6193 0.32V1.32ZM40.7693 2.538L40.0498 3.23244C40.6076 3.81041 40.9313 4.61915 40.9313 5.772H41.9313H42.9313C42.9313 4.21818 42.4804 2.87092 41.4889 1.84355L40.7693 2.538ZM41.9313 5.772H40.9313C40.9313 6.9018 40.5902 7.68581 39.989 8.24694L40.6713 8.978L41.3537 9.70906C42.4324 8.70219 42.9313 7.34886 42.9313 5.772H41.9313Z" fill="#8F4428" mask="url(#path-1-outside-1_4_489)"/>
 </g>
<text x="48" y="14" font-size="12" fill="black">12</text>
<defs>
<filter id="filter0_d_4_489" x="0.0651855" y="0.320007" width="44.8661" height="14.82" filterUnits="userSpaceOnUse" color-interpolation-filters="sRGB">
<feFlood flood-opacity="0" result="BackgroundImageFix"/>
<feColorMatrix in="SourceAlpha" type="matrix" values="0 0 0 0 0 0 0 0 0 0 0 0 0 0 0 0 0 0 127 0" result="hardAlpha"/>
<feOffset dy="2"/>
<feGaussianBlur stdDeviation="1"/>
<feComposite in2="hardAlpha" operator="out"/>
<feColorMatrix type="matrix" values="0 0 0 0 0.331731 0 0 0 0 0.138221 0 0 0 0 0 0 0 0 0.6 0"/>
<feBlend mode="normal" in2="BackgroundImageFix" result="effect1_dropShadow_4_489"/>
<feBlend mode="normal" in="SourceGraphic" in2="effect1_dropShadow_4_489" result="shape"/>
</filter>
</defs>
</svg>
