<svg width="119" height="109" viewBox="0 0 119 109" fill="none" xmlns="http://www.w3.org/2000/svg">
<g filter="url(#filter0_i_34_4)">
<path d="M59.566 91.197C88.8436 91.197 103.476 71.539 103.476 47.2874C103.476 23.0357 88.8436 3.37769 59.566 3.37769C30.2884 3.37769 15.6563 23.0357 15.6563 47.2874C15.6563 71.539 30.2884 91.197 59.566 91.197Z" fill="url(#paint0_radial_34_4)"/>
</g>
<g filter="url(#filter1_d_34_4)">
<path d="M59.566 91.197C88.8436 91.197 103.476 71.539 103.476 47.2874C103.476 23.0357 88.8436 3.37769 59.566 3.37769C30.2884 3.37769 15.6563 23.0357 15.6563 47.2874C15.6563 71.539 30.2884 91.197 59.566 91.197Z" fill="url(#paint1_radial_34_4)" shape-rendering="crispEdges"/>
</g>
<path d="M22.4116 3.37769H62.9437L15.6563 47.2874V10.133C15.6563 8.34139 16.368 6.62315 17.6349 5.35628C18.9018 4.08941 20.62 3.37769 22.4116 3.37769Z" fill="#BB1D80"/>
<path d="M22.4116 3.37769H62.9437L15.6563 47.2874V10.133C15.6563 8.34139 16.368 6.62315 17.6349 5.35628C18.9018 4.08941 20.62 3.37769 22.4116 3.37769Z" fill="url(#paint2_linear_34_4)"/>
<path d="M33.943 3.37769L15.6563 21.6644V12.1123L24.391 3.37769H33.943ZM50.8313 3.37769L15.6563 38.5527V29.0007L41.2793 3.37769H50.8313Z" fill="#5092FF"/>
<g filter="url(#filter2_f_34_4)">
<path d="M83.7789 30.1386C85.5898 31.1076 87.8433 30.425 88.8122 28.6141C89.7812 26.8032 89.0986 24.5496 87.2877 23.5807C85.4768 22.6118 83.2233 23.2943 82.2543 25.1053C81.2854 26.9162 81.968 29.1697 83.7789 30.1386Z" fill="#E37847" fill-opacity="0.75"/>
</g>
<path d="M89.1207 22.7993C94.3155 22.7993 99.2537 18.5772 99.2537 12.6663" stroke="url(#paint3_radial_34_4)" stroke-width="5.0665" stroke-linecap="round"/>
<path d="M28.3226 86.9749C33.5175 86.9749 38.4556 82.7528 38.4556 76.8419" stroke="url(#paint4_radial_34_4)" stroke-width="5.0665" stroke-linecap="round"/>
<path d="M93.3427 91.197C95.2081 91.197 96.7204 89.6848 96.7204 87.8194C96.7204 85.9539 95.2081 84.4417 93.3427 84.4417C91.4773 84.4417 89.965 85.9539 89.965 87.8194C89.965 89.6848 91.4773 91.197 93.3427 91.197Z" fill="url(#paint5_radial_34_4)"/>
<path d="M35.9223 64.1757C37.7877 64.1757 39.3 62.6635 39.3 60.798C39.3 58.9326 37.7877 57.4203 35.9223 57.4203C34.0568 57.4203 32.5446 58.9326 32.5446 60.798C32.5446 62.6635 34.0568 64.1757 35.9223 64.1757Z" fill="url(#paint6_radial_34_4)"/>
<path d="M86.5874 6.75533C88.4528 6.75533 89.9651 5.2431 89.9651 3.37767C89.9651 1.51223 88.4528 0 86.5874 0C84.7219 0 83.2097 1.51223 83.2097 3.37767C83.2097 5.2431 84.7219 6.75533 86.5874 6.75533Z" fill="url(#paint7_radial_34_4)"/>
<g filter="url(#filter3_f_34_4)">
<path d="M71.3879 60.788H88.0364C90.4174 60.7877 92.7038 59.8556 94.4063 58.191C96.1088 56.5264 97.0921 54.2615 97.146 51.8811L97.2034 49.26C97.2223 48.3879 97.0668 47.5209 96.7462 46.7096C96.4256 45.8984 95.9462 45.1593 95.3362 44.5358C94.7262 43.9123 93.9979 43.4168 93.1939 43.0785C92.3899 42.7401 91.5264 42.5657 90.6541 42.5655C89.966 42.565 89.2846 42.7002 88.6488 42.9634C88.013 43.2265 87.4353 43.6123 86.9487 44.0989C86.4622 44.5855 86.0763 45.1631 85.8132 45.7989C85.5501 46.4347 85.4149 47.1162 85.4153 47.8043V50.753C85.4153 52.4452 86.7867 53.8165 88.4789 53.8165C88.8815 53.8169 89.2802 53.738 89.6523 53.5843C90.0244 53.4305 90.3625 53.2049 90.6473 52.9204C90.9321 52.6359 91.1581 52.298 91.3123 51.9261C91.4664 51.5542 91.5458 51.1555 91.5458 50.753V49.7937" stroke="#BB582B" stroke-opacity="0.5" stroke-width="5.0665" stroke-linecap="round" stroke-linejoin="round"/>
</g>
<path d="M68.5099 60.2234H95.0381C97.7134 60.2236 100.283 59.1808 102.202 57.3164C104.12 55.4521 105.237 52.9132 105.313 50.239L105.34 49.2595C105.375 48.0127 105.16 46.7715 104.707 45.6092C104.254 44.447 103.573 43.3874 102.704 42.4931C101.834 41.5987 100.794 40.8878 99.6453 40.4024C98.4963 39.917 97.2616 39.6669 96.0143 39.6669H95.8049C94.852 39.6665 93.9083 39.8538 93.0279 40.2183C92.1475 40.5827 91.3475 41.1172 90.6737 41.7909C89.9999 42.4647 89.4655 43.2647 89.101 44.1452C88.7366 45.0256 88.5492 45.9693 88.5496 46.9222V47.9827C88.5496 50.4012 90.5087 52.3636 92.9305 52.3636C95.3489 52.3636 97.3079 50.4045 97.3079 47.9827V47.824" stroke="#00A6ED" stroke-width="5.0665" stroke-linecap="round" stroke-linejoin="round"/>
<path d="M68.5099 60.2234H95.0381C97.7134 60.2236 100.283 59.1808 102.202 57.3164C104.12 55.4521 105.237 52.9132 105.313 50.239L105.34 49.2595C105.375 48.0127 105.16 46.7715 104.707 45.6092C104.254 44.447 103.573 43.3874 102.704 42.4931C101.834 41.5987 100.794 40.8878 99.6453 40.4024C98.4963 39.917 97.2616 39.6669 96.0143 39.6669H95.8049C94.852 39.6665 93.9083 39.8538 93.0279 40.2183C92.1475 40.5827 91.3475 41.1172 90.6737 41.7909C89.9999 42.4647 89.4655 43.2647 89.101 44.1452C88.7366 45.0256 88.5492 45.9693 88.5496 46.9222V47.9827C88.5496 50.4012 90.5087 52.3636 92.9305 52.3636C95.3489 52.3636 97.3079 50.4045 97.3079 47.9827V47.824" stroke="url(#paint8_radial_34_4)" stroke-width="5.0665" stroke-linecap="round" stroke-linejoin="round"/>
<path d="M68.5099 60.2234H95.0381C97.7134 60.2236 100.283 59.1808 102.202 57.3164C104.12 55.4521 105.237 52.9132 105.313 50.239L105.34 49.2595C105.375 48.0127 105.16 46.7715 104.707 45.6092C104.254 44.447 103.573 43.3874 102.704 42.4931C101.834 41.5987 100.794 40.8878 99.6453 40.4024C98.4963 39.917 97.2616 39.6669 96.0143 39.6669H95.8049C94.852 39.6665 93.9083 39.8538 93.0279 40.2183C92.1475 40.5827 91.3475 41.1172 90.6737 41.7909C89.9999 42.4647 89.4655 43.2647 89.101 44.1452C88.7366 45.0256 88.5492 45.9693 88.5496 46.9222V47.9827C88.5496 50.4012 90.5087 52.3636 92.9305 52.3636C95.3489 52.3636 97.3079 50.4045 97.3079 47.9827V47.824" stroke="url(#paint9_radial_34_4)" stroke-width="5.0665" stroke-linecap="round" stroke-linejoin="round"/>
<path d="M68.5099 60.2234H95.0381C97.7134 60.2236 100.283 59.1808 102.202 57.3164C104.12 55.4521 105.237 52.9132 105.313 50.239L105.34 49.2595C105.375 48.0127 105.16 46.7715 104.707 45.6092C104.254 44.447 103.573 43.3874 102.704 42.4931C101.834 41.5987 100.794 40.8878 99.6453 40.4024C98.4963 39.917 97.2616 39.6669 96.0143 39.6669H95.8049C94.852 39.6665 93.9083 39.8538 93.0279 40.2183C92.1475 40.5827 91.3475 41.1172 90.6737 41.7909C89.9999 42.4647 89.4655 43.2647 89.101 44.1452C88.7366 45.0256 88.5492 45.9693 88.5496 46.9222V47.9827C88.5496 50.4012 90.5087 52.3636 92.9305 52.3636C95.3489 52.3636 97.3079 50.4045 97.3079 47.9827V47.824" stroke="url(#paint10_radial_34_4)" stroke-width="5.0665" stroke-linecap="round" stroke-linejoin="round"/>
<g filter="url(#filter4_f_34_4)">
<path d="M67.5608 59.7509H94.089C96.7642 59.7502 99.3337 58.7065 101.252 56.8415C103.17 54.9765 104.285 52.4372 104.36 49.7631L104.391 48.787C104.426 47.5402 104.211 46.2989 103.758 45.1367C103.305 43.9745 102.624 42.9149 101.755 42.0205C100.885 41.1262 99.8451 40.4153 98.6961 39.9299C97.5471 39.4444 96.3125 39.1944 95.0651 39.1944H94.8557C93.9028 39.194 92.9592 39.3813 92.0787 39.7458C91.1983 40.1102 90.3983 40.6446 89.7245 41.3184C89.0507 41.9922 88.5163 42.7922 88.1519 43.6726C87.7874 44.5531 87.6 45.4967 87.6005 46.4496V47.5102C87.6005 49.9286 89.5595 51.8877 91.9813 51.8877C94.3997 51.8877 96.3588 49.9286 96.3588 47.5102V47.3481" stroke="#A0D9FF" stroke-width="1.68883" stroke-linecap="round" stroke-linejoin="round"/>
</g>
<g filter="url(#filter5_f_34_4)">
<path d="M97.8548 48.5808C98.5693 48.5808 99.1485 48.0016 99.1485 47.2872C99.1485 46.5727 98.5693 45.9935 97.8548 45.9935C97.1403 45.9935 96.5612 46.5727 96.5612 47.2872C96.5612 48.0016 97.1403 48.5808 97.8548 48.5808Z" fill="#C7E8FF"/>
</g>
<path d="M66.3213 48.098C65.4255 48.098 64.5663 48.4538 63.9329 49.0873C63.2995 49.7207 62.9436 50.5798 62.9436 51.4756C62.9436 52.3714 63.2995 53.2306 63.9329 53.864C64.5663 54.4974 65.4255 54.8533 66.3213 54.8533C66.5855 54.8533 66.839 54.9583 67.0258 55.1451C67.2127 55.332 67.3177 55.5854 67.3177 55.8497C67.3177 56.114 67.2127 56.3674 67.0258 56.5543C66.839 56.7411 66.5855 56.8461 66.3213 56.8461C65.4255 56.8461 64.5663 57.202 63.9329 57.8354C63.2995 58.4688 62.9436 59.328 62.9436 60.2238C62.9436 61.1196 63.2995 61.9787 63.9329 62.6122C64.5663 63.2456 65.4255 63.6015 66.3213 63.6015C66.5864 63.6015 66.8407 63.7068 67.0282 63.8943C67.2157 64.0818 67.3211 64.3361 67.3211 64.6012C67.3211 64.8664 67.2157 65.1207 67.0282 65.3082C66.8407 65.4957 66.5864 65.601 66.3213 65.601C65.4255 65.601 64.5663 65.9569 63.9329 66.5903C63.2995 67.2238 62.9436 68.0829 62.9436 68.9787C62.9436 69.8745 63.2995 70.7336 63.9329 71.3671C64.5663 72.0005 65.4255 72.3564 66.3213 72.3564C67.7326 72.357 69.1172 71.9723 70.3259 71.2438C71.5347 70.5152 72.5216 69.4706 73.1802 68.2224C73.8389 66.9743 74.1443 65.57 74.0635 64.161C73.9828 62.7521 73.5189 61.3919 72.722 60.2272C73.5189 59.0624 73.9828 57.7023 74.0635 56.2933C74.1443 54.8843 73.8389 53.48 73.1802 52.2319C72.5216 50.9837 71.5347 49.9391 70.3259 49.2106C69.1172 48.4821 67.7326 48.0974 66.3213 48.098Z" fill="url(#paint11_radial_34_4)"/>
<g filter="url(#filter6_f_34_4)">
<path d="M69.3444 36.063C69.3444 36.063 71.2021 31.0202 75.9342 31.922C82.0647 33.0873 82.524 39.6873 82.524 39.6873" stroke="url(#paint12_radial_34_4)" stroke-width="5.0665" stroke-linecap="round"/>
</g>
<path d="M68.5099 37.3568C69.2361 35.5058 71.0939 31.814 76.3799 31.814C81.4667 31.814 83.4865 35.5058 84.2634 37.3534" stroke="url(#paint13_radial_34_4)" stroke-width="6.0798" stroke-linecap="round"/>
<g filter="url(#filter7_f_34_4)">
<path d="M37.6516 36.0467C37.6516 36.0467 39.5093 31.0038 44.2414 31.9023C50.3718 33.0709 50.8312 39.6709 50.8312 39.6709" stroke="url(#paint14_radial_34_4)" stroke-width="5.0665" stroke-linecap="round"/>
</g>
<path d="M37.5097 37.3568C38.2393 35.5058 40.097 31.814 45.3797 31.814C50.4698 31.814 52.4897 35.5058 53.2665 37.3534" stroke="url(#paint15_radial_34_4)" stroke-width="6.0798" stroke-linecap="round"/>
<defs>
<filter id="filter0_i_34_4" x="15.6563" y="-3.37765" width="94.5747" height="94.5747" filterUnits="userSpaceOnUse" color-interpolation-filters="sRGB">
<feFlood flood-opacity="0" result="BackgroundImageFix"/>
<feBlend mode="normal" in="SourceGraphic" in2="BackgroundImageFix" result="shape"/>
<feColorMatrix in="SourceAlpha" type="matrix" values="0 0 0 0 0 0 0 0 0 0 0 0 0 0 0 0 0 0 127 0" result="hardAlpha"/>
<feOffset dx="6.75533" dy="-6.75533"/>
<feGaussianBlur stdDeviation="6.75533"/>
<feComposite in2="hardAlpha" operator="arithmetic" k2="-1" k3="1"/>
<feColorMatrix type="matrix" values="0 0 0 0 0 0 0 0 0 0 0 0 0 0 0 0 0 0 0.08 0"/>
<feBlend mode="normal" in2="shape" result="effect1_innerShadow_34_4"/>
</filter>
<filter id="filter1_d_34_4" x="0.851236" y="-8.46637" width="117.429" height="117.429" filterUnits="userSpaceOnUse" color-interpolation-filters="sRGB">
<feFlood flood-opacity="0" result="BackgroundImageFix"/>
<feColorMatrix in="SourceAlpha" type="matrix" values="0 0 0 0 0 0 0 0 0 0 0 0 0 0 0 0 0 0 127 0" result="hardAlpha"/>
<feOffset dy="2.96101"/>
<feGaussianBlur stdDeviation="7.40254"/>
<feComposite in2="hardAlpha" operator="out"/>
<feColorMatrix type="matrix" values="0 0 0 0 0 0 0 0 0 0 0 0 0 0 0 0 0 0 0.25 0"/>
<feBlend mode="normal" in2="BackgroundImageFix" result="effect1_dropShadow_34_4"/>
<feBlend mode="normal" in="SourceGraphic" in2="effect1_dropShadow_34_4" result="shape"/>
</filter>
<filter id="filter2_f_34_4" x="75.0584" y="16.3848" width="20.9498" height="20.9498" filterUnits="userSpaceOnUse" color-interpolation-filters="sRGB">
<feFlood flood-opacity="0" result="BackgroundImageFix"/>
<feBlend mode="normal" in="SourceGraphic" in2="BackgroundImageFix" result="shape"/>
<feGaussianBlur stdDeviation="3.37767" result="effect1_foregroundBlur_34_4"/>
</filter>
<filter id="filter3_f_34_4" x="65.4769" y="36.6546" width="37.6389" height="30.0443" filterUnits="userSpaceOnUse" color-interpolation-filters="sRGB">
<feFlood flood-opacity="0" result="BackgroundImageFix"/>
<feBlend mode="normal" in="SourceGraphic" in2="BackgroundImageFix" result="shape"/>
<feGaussianBlur stdDeviation="1.68883" result="effect1_foregroundBlur_34_4"/>
</filter>
<filter id="filter4_f_34_4" x="63.3387" y="34.9723" width="45.278" height="29.0006" filterUnits="userSpaceOnUse" color-interpolation-filters="sRGB">
<feFlood flood-opacity="0" result="BackgroundImageFix"/>
<feBlend mode="normal" in="SourceGraphic" in2="BackgroundImageFix" result="shape"/>
<feGaussianBlur stdDeviation="1.68883" result="effect1_foregroundBlur_34_4"/>
</filter>
<filter id="filter5_f_34_4" x="93.1835" y="42.6159" width="9.34262" height="9.34262" filterUnits="userSpaceOnUse" color-interpolation-filters="sRGB">
<feFlood flood-opacity="0" result="BackgroundImageFix"/>
<feBlend mode="normal" in="SourceGraphic" in2="BackgroundImageFix" result="shape"/>
<feGaussianBlur stdDeviation="1.68883" result="effect1_foregroundBlur_34_4"/>
</filter>
<filter id="filter6_f_34_4" x="65.1216" y="27.5903" width="21.6246" height="16.3192" filterUnits="userSpaceOnUse" color-interpolation-filters="sRGB">
<feFlood flood-opacity="0" result="BackgroundImageFix"/>
<feBlend mode="normal" in="SourceGraphic" in2="BackgroundImageFix" result="shape"/>
<feGaussianBlur stdDeviation="0.844417" result="effect1_foregroundBlur_34_4"/>
</filter>
<filter id="filter7_f_34_4" x="33.4288" y="27.5713" width="21.6246" height="16.3218" filterUnits="userSpaceOnUse" color-interpolation-filters="sRGB">
<feFlood flood-opacity="0" result="BackgroundImageFix"/>
<feBlend mode="normal" in="SourceGraphic" in2="BackgroundImageFix" result="shape"/>
<feGaussianBlur stdDeviation="0.844417" result="effect1_foregroundBlur_34_4"/>
</filter>
<radialGradient id="paint0_radial_34_4" cx="0" cy="0" r="1" gradientUnits="userSpaceOnUse" gradientTransform="translate(89.3674 25.3363) rotate(132.839) scale(117.635)">
<stop stop-color="#FFF478"/>
<stop offset="0.475" stop-color="#FFB02E"/>
<stop offset="1" stop-color="#F70A8D"/>
</radialGradient>
<radialGradient id="paint1_radial_34_4" cx="0" cy="0" r="1" gradientUnits="userSpaceOnUse" gradientTransform="translate(59.5694 36.3133) rotate(90) scale(56.1004)">
<stop offset="0.824" stop-color="#F59639" stop-opacity="0"/>
<stop offset="1" stop-color="#FF63C4"/>
</radialGradient>
<linearGradient id="paint2_linear_34_4" x1="15.6563" y1="57.2346" x2="59.566" y2="7.20458" gradientUnits="userSpaceOnUse">
<stop stop-color="#5092FF"/>
<stop offset="0.859" stop-color="#5092FF" stop-opacity="0"/>
</linearGradient>
<radialGradient id="paint3_radial_34_4" cx="0" cy="0" r="1" gradientUnits="userSpaceOnUse" gradientTransform="translate(99.7265 23.3532) rotate(-129.912) scale(10.9401 46.3386)">
<stop offset="0.359" stop-color="#FF42B1"/>
<stop offset="0.854" stop-color="#F70A8D"/>
<stop offset="1" stop-color="#CE336E"/>
</radialGradient>
<radialGradient id="paint4_radial_34_4" cx="0" cy="0" r="1" gradientUnits="userSpaceOnUse" gradientTransform="translate(38.9285 87.5289) rotate(-129.912) scale(10.9401 46.3386)">
<stop offset="0.359" stop-color="#FF42B1"/>
<stop offset="0.854" stop-color="#F70A8D"/>
<stop offset="1" stop-color="#CE336E"/>
</radialGradient>
<radialGradient id="paint5_radial_34_4" cx="0" cy="0" r="1" gradientUnits="userSpaceOnUse" gradientTransform="translate(95.0315 86.1305) rotate(135) scale(4.77674)">
<stop stop-color="#45C9FF"/>
<stop offset="1" stop-color="#3E80FF"/>
</radialGradient>
<radialGradient id="paint6_radial_34_4" cx="0" cy="0" r="1" gradientUnits="userSpaceOnUse" gradientTransform="translate(37.6111 59.1092) rotate(135) scale(4.77674)">
<stop stop-color="#45C9FF"/>
<stop offset="1" stop-color="#3E80FF"/>
</radialGradient>
<radialGradient id="paint7_radial_34_4" cx="0" cy="0" r="1" gradientUnits="userSpaceOnUse" gradientTransform="translate(88.2762 1.68883) rotate(135) scale(4.77674)">
<stop stop-color="#45C9FF"/>
<stop offset="1" stop-color="#3E80FF"/>
</radialGradient>
<radialGradient id="paint8_radial_34_4" cx="0" cy="0" r="1" gradientUnits="userSpaceOnUse" gradientTransform="translate(77.9336 44.9901) rotate(9.65183) scale(15.7389 26.6516)">
<stop offset="0.328" stop-color="#1B6AD1"/>
<stop offset="1" stop-color="#2A80F0" stop-opacity="0"/>
</radialGradient>
<radialGradient id="paint9_radial_34_4" cx="0" cy="0" r="1" gradientUnits="userSpaceOnUse" gradientTransform="translate(93.9776 47.4727) rotate(27.8973) scale(4.06067 5.84679)">
<stop stop-color="#1B6AD1"/>
<stop offset="1" stop-color="#2A80F0" stop-opacity="0"/>
</radialGradient>
<radialGradient id="paint10_radial_34_4" cx="0" cy="0" r="1" gradientUnits="userSpaceOnUse" gradientTransform="translate(99.3582 67.58) rotate(-92.9038) scale(14.5849 60.0158)">
<stop stop-color="#1B6AD1"/>
<stop offset="0.602" stop-color="#2A80F0" stop-opacity="0"/>
</radialGradient>
<radialGradient id="paint11_radial_34_4" cx="0" cy="0" r="1" gradientUnits="userSpaceOnUse" gradientTransform="translate(62.9436 60.2238) scale(20.017 21.8118)">
<stop stop-color="#3E3537"/>
<stop offset="0.4" stop-color="#442932"/>
<stop offset="0.676" stop-color="#6A5662"/>
</radialGradient>
<radialGradient id="paint12_radial_34_4" cx="0" cy="0" r="1" gradientUnits="userSpaceOnUse" gradientTransform="translate(80.0752 34.0939) rotate(122.392) scale(11.7736 20.3719)">
<stop stop-color="#CA7A1B"/>
<stop offset="0.634" stop-color="#CA7A1B" stop-opacity="0"/>
</radialGradient>
<radialGradient id="paint13_radial_34_4" cx="0" cy="0" r="1" gradientUnits="userSpaceOnUse" gradientTransform="translate(76.3867 37.8736) rotate(-91.5326) scale(22.0873 30.9618)">
<stop offset="0.167" stop-color="#482641"/>
<stop offset="0.276" stop-color="#503A4A"/>
<stop offset="0.401" stop-color="#483637"/>
</radialGradient>
<radialGradient id="paint14_radial_34_4" cx="0" cy="0" r="1" gradientUnits="userSpaceOnUse" gradientTransform="translate(48.3858 34.0809) rotate(122.392) scale(11.7736 20.3719)">
<stop stop-color="#CA7A1B"/>
<stop offset="0.634" stop-color="#CA7A1B" stop-opacity="0"/>
</radialGradient>
<radialGradient id="paint15_radial_34_4" cx="0" cy="0" r="1" gradientUnits="userSpaceOnUse" gradientTransform="translate(45.3898 37.8736) rotate(-91.5326) scale(22.0873 30.9618)">
<stop offset="0.167" stop-color="#482641"/>
<stop offset="0.276" stop-color="#503A4A"/>
<stop offset="0.401" stop-color="#483637"/>
</radialGradient>
</defs>
</svg>
