<svg width="13" height="14" viewBox="0 0 13 14" fill="none" xmlns="http://www.w3.org/2000/svg">
<path d="M1.11651 10.946C0.882823 11.1861 0.754063 11.5091 0.758556 11.8441C0.763048 12.1791 0.900428 12.4985 1.14047 12.7322C1.38052 12.9659 1.70356 13.0947 2.03854 13.0902C2.37352 13.0857 2.693 12.9483 2.92669 12.7083L6.74491 8.78622L10.6669 12.6044C10.907 12.8381 11.23 12.9669 11.565 12.9624C11.9 12.9579 12.2195 12.8205 12.4532 12.5805C12.6869 12.3404 12.8156 12.0174 12.8111 11.6824C12.8066 11.3474 12.6692 11.028 12.4292 10.7943L8.50716 6.97605L12.3254 3.05401C12.5591 2.81397 12.6878 2.49092 12.6833 2.15594C12.6789 1.82096 12.5415 1.50148 12.3014 1.26779C12.0614 1.03411 11.7383 0.905344 11.4034 0.909837C11.0684 0.91433 10.7489 1.05171 10.5152 1.29175L6.69699 5.21379L2.77495 1.39557C2.53491 1.16188 2.21186 1.03312 1.87688 1.03761C1.5419 1.04211 1.22243 1.17949 0.988736 1.41953C0.755046 1.65957 0.626285 1.98262 0.630778 2.3176C0.635271 2.65258 0.772651 2.97205 1.01269 3.20574L4.93473 7.02397L1.11651 10.946Z" fill="white"/>
</svg>
