<svg width="17" height="16" viewBox="0 0 17 16" fill="none" xmlns="http://www.w3.org/2000/svg">
<path d="M7.09732 14.7368C7.09732 15.0719 7.2304 15.3931 7.46729 15.63C7.70417 15.8669 8.02546 16 8.36047 16C8.69548 16 9.01677 15.8669 9.25366 15.63C9.49055 15.3931 9.62363 15.0719 9.62363 14.7368V9.26316H15.0973C15.4323 9.26316 15.7536 9.13008 15.9905 8.89319C16.2274 8.6563 16.3605 8.33501 16.3605 8C16.3605 7.66499 16.2274 7.3437 15.9905 7.10681C15.7536 6.86992 15.4323 6.73684 15.0973 6.73684H9.62363V1.26316C9.62363 0.928148 9.49055 0.606858 9.25366 0.36997C9.01677 0.133082 8.69548 0 8.36047 0C8.02546 0 7.70417 0.133082 7.46729 0.36997C7.2304 0.606858 7.09732 0.928148 7.09732 1.26316V6.73684H1.62363C1.28862 6.73684 0.967332 6.86992 0.730444 7.10681C0.493556 7.3437 0.360474 7.66499 0.360474 8C0.360474 8.33501 0.493556 8.6563 0.730444 8.89319C0.967332 9.13008 1.28862 9.26316 1.62363 9.26316H7.09732V14.7368Z" fill="white"/>
</svg>
